{"title":"The Green Hornet 3D (Stereoscopic Side-by-Side MKV)","uid":6671844,"size":12097485308,"categoryP":"video","categoryS":"3d","magnet":"?xt=urn:btih:792ecd41b232fd33fd92f2e522c79cecb7170c35&amp;dn=The+Green+Hornet+3D+%28Stereoscopic+Side-by-Side+MKV%29&amp;tr=udp%3A%2F%2Ftracker.openbittorrent.com%3A80&amp;tr=udp%3A%2F%2Fopen.demonii.com%3A1337&amp;tr=udp%3A%2F%2Ftracker.coppersurfer.tk%3A6969&amp;tr=udp%3A%2F%2Fexodus.desync.com%3A6969","seeders":0,"leechers":0,"uploader":"L3G3ND","files":2,"time":1315902571,"description":"This is a stereoscopic 3D rip of The Green Hornet, for new 3D TVs or computers with Nvidia 3D Vision. Tested with Stereoscopic Player. Enjoy!\n\nTitle: The Green Hornet (2011)\nRated: PG-13\nRuntime: 119 min\nGenre: Action | Comedy | Crime\n\nDescription:\nPlayboy Britt Reid (Seth Rogen) becomes the new publisher of Los Angeles\\' \\&quot;The Daily Sentinel\\&quot; after the sudden death of his father. Britt\\'s party life is about to change when he and his driver and kung fu expert, Kato (Jay Chou), stop a robbery. With the help of Kato, Britt starts a new career of fighting crime as the masked superhero \\&quot;The Green Hornet\\&quot;.\n-From IMDB Page: http://www.imdb.com/title/tt0990407/\n\nGeneral\nUnique ID : 236598747030246752382819948572403512984 (0xB1FF42DC1A5E5899A8DB9A54436B3698)\nComplete name : [filepath]\\\\The Green Hornet 3D.mkv\nFormat : Matroska\nFile size : 11.3 GiB\nDuration : 1h 58mn\nOverall bit rate : 13.6 Mbps\nEncoded date : UTC 2011-04-19 07:54:23\nWriting application : mkvmerge v4.0.0 (\\'The Stars were mine\\') built on Jun 6 2010 16:18:42\nWriting library : libebml v1.0.0 + libmatroska v1.0.0\n\nVideo\nID : 1\nFormat : AVC\nFormat/Info : Advanced Video Codec\nFormat profile : &lt;a class=&quot;__cf_email__&quot; href=&quot;/cdn-cgi/l/email-protection&quot; data-cfemail=&quot;0c44656b644c4038223d&quot;&gt;[email&amp;#160;protected]&lt;/a&gt;&lt;script data-cfhash='f9e31' type=&quot;text/javascript&quot;&gt;\n/* &lt;![CDATA[ */!function(){try{var t=&quot;currentScript&quot;in document?document.currentScript:function(){for(var t=document.getElementsByTagName(&quot;script&quot;),e=t.length;e--;)if(t[e].getAttribute(&quot;data-cfhash&quot;))return t[e]}();if(t&amp;&amp;t.previousSibling){var e,r,n,i,c=t.previousSibling,a=c.getAttribute(&quot;data-cfemail&quot;);if(a){for(e=&quot;&quot;,r=parseInt(a.substr(0,2),16),n=2;a.length-n;n+=2)i=parseInt(a.substr(n,2),16)^r,e+=String.fromCharCode(i);e=document.createTextNode(e),c.parentNode.replaceChild(e,c)}t.parentNode.removeChild(t);}}catch(u){}}()/* ]]&gt; */&lt;/script&gt;\nFormat settings, CABAC : Yes\nFormat settings, ReFrames : 2 frames\nFormat settings, GOP : M=3, N=15\nCodec ID : V_MPEG4/ISO/AVC\nDuration : 1h 58mn\nBit rate mode : Variable\nBit rate : 11.8 Mbps\nMaximum bit rate : 18.1 Mbps\nWidth : 1 920 pixels\nHeight : 1 080 pixels\nDisplay aspect ratio : 16:9\nFrame rate : 23.976 fps\nColor space : YUV\nChroma subsampling : 4:2:0\nBit depth : 8 bits\nScan type : Progressive\nBits/(Pixel*Frame) : 0.237\nStream size : 9.79 GiB (87%)\nLanguage : English\n\nAudio\nID : 2\nFormat : DTS\nFormat/Info : Digital Theater Systems\nCodec ID : A_DTS\nDuration : 1h 58mn\nBit rate mode : Constant\nBit rate : 1 510 Kbps\nChannel(s) : 6 channels\nChannel positions : Front: L C R, Side: L R, LFE\nSampling rate : 48.0 KHz\nBit depth : 16 bits\nCompression mode : Lossy\nDelay relative to video : 11ms\nStream size : 1.25 GiB (11%)\nLanguage : English","torrent":{"xt":"urn:btih:792ecd41b232fd33fd92f2e522c79cecb7170c35","amp;dn":"The+Green+Hornet+3D+%28Stereoscopic+Side-by-Side+MKV%29","amp;tr":["udp%3A%2F%2Ftracker.openbittorrent.com%3A80","udp%3A%2F%2Fopen.demonii.com%3A1337","udp%3A%2F%2Ftracker.coppersurfer.tk%3A6969","udp%3A%2F%2Fexodus.desync.com%3A6969"],"infoHash":"792ecd41b232fd33fd92f2e522c79cecb7170c35","infoHashBuffer":{"type":"Buffer","data":[121,46,205,65,178,50,253,51,253,146,242,229,34,199,156,236,183,23,12,53]},"announce":[],"urlList":[]}}